<?xml version="1.0" standalone="no"?><!DOCTYPE svg PUBLIC "-//W3C//DTD SVG 1.1//EN" "http://www.w3.org/Graphics/SVG/1.1/DTD/svg11.dtd"><svg t="1735478718282" class="icon" viewBox="0 0 1024 1024" version="1.1" xmlns="http://www.w3.org/2000/svg" p-id="9826" xmlns:xlink="http://www.w3.org/1999/xlink" width="200" height="200"><path d="M456.2 627.5h111.5v232.1H456.2z" fill="#B05C25" p-id="9827"></path><path d="M775.8 707.2l-24.9-10.5c-11.3-4.7-24.1-4.7-35.5 0l-75.1 31.4c-11.3 4.8-24.1 4.8-35.5 0l-37-15.5h-0.1l-38-15.9c-5.7-2.4-11.7-3.6-17.7-3.6s-12.1 1.2-17.7 3.6l-38.1 15.9-37 15.5c-11.3 4.8-24.1 4.8-35.5 0l-75.1-31.4c-11.3-4.7-24.1-4.7-35.5 0l-24.9 10.5c-18.2 7.6-34.6-13.9-22.4-29.4l21.5-27.4 16.4-20.9 66.4-84.5 14.4-18.3 6.9-8.8 12.8-16.2 8.8-11.2 79.6-101.2 14.7-18.7 29.7-37.8c0.5-0.6 1-1.1 1.5-1.7 3.7-3.8 8.6-5.6 13.5-5.6 0.6 0 1.2 0 1.9 0.1h0.5c0.1 0 0.3 0 0.5 0.1 0.2 0 0.4 0.1 0.7 0.1s0.6 0.1 0.9 0.2c0.3 0.1 0.6 0.1 0.9 0.2 0.2 0.1 0.5 0.1 0.8 0.2 0.2 0.1 0.4 0.1 0.6 0.2l1.5 0.6c0.3 0.1 0.6 0.3 0.8 0.4 0.1 0.1 0.3 0.2 0.4 0.2 0.1 0.1 0.3 0.2 0.4 0.2 0.3 0.2 0.5 0.3 0.8 0.5s0.5 0.4 0.8 0.5c0.3 0.2 0.5 0.4 0.8 0.6 0.4 0.3 0.7 0.6 1.1 1l0.4 0.4c0.5 0.5 1 1.1 1.4 1.7l37 47 17.1 21.7 16.3 20.8 13.3 16.9 49.1 62.5 58.1 73.9 17.7 22.5 4.8 6.1 15.1 19.2 42.8 54.4c11.9 15.6-4.5 37.1-22.7 29.5z" fill="#00AD95" p-id="9828"></path><path d="M717.7 497.9c0 0.9-0.1 1.8-0.3 2.6-0.1 0.3-0.1 0.5-0.2 0.8-0.1 0.3-0.2 0.5-0.2 0.8-0.1 0.2-0.1 0.4-0.2 0.6-0.1 0.4-0.3 0.8-0.5 1.1-0.1 0.2-0.2 0.4-0.3 0.5-0.1 0.2-0.3 0.5-0.4 0.7-0.3 0.5-0.6 0.9-1 1.3-0.2 0.2-0.3 0.4-0.5 0.6s-0.4 0.4-0.5 0.6c-0.2 0.2-0.4 0.4-0.6 0.5-0.2 0.2-0.4 0.3-0.6 0.5-0.1 0.1-0.3 0.2-0.4 0.3-0.1 0.1-0.3 0.2-0.4 0.3-0.2 0.2-0.4 0.3-0.7 0.4-0.2 0.1-0.4 0.2-0.6 0.4h-0.1c-0.2 0.1-0.4 0.2-0.7 0.3-0.2 0.1-0.5 0.2-0.7 0.3-0.4 0.2-0.8 0.3-1.3 0.4-0.3 0.1-0.6 0.1-0.9 0.2-0.3 0.1-0.5 0.1-0.8 0.1h-0.4c-2.1 0.2-4.4-0.1-6.7-1l-17.7-7.4c-4.4-1.9-9.2-2.7-14-2.5-0.4 0-0.7 0-1.1 0.1H664.8c-0.5 0-0.9 0.1-1.4 0.2-0.2 0-0.5 0.1-0.7 0.1h-0.2c-0.3 0-0.5 0.1-0.8 0.1h-0.2c-0.2 0-0.4 0.1-0.7 0.1h-0.1-0.2c-0.4 0.1-0.7 0.2-1.1 0.3-0.7 0.2-1.3 0.4-2 0.6-0.1 0.1-0.3 0.1-0.4 0.2-0.1 0-0.2 0.1-0.3 0.1-0.3 0.1-0.7 0.2-1 0.4l-53.2 22.3c-8 3.4-17.1 3.4-25.1 0L524.6 503c-4-1.7-8.3-2.5-12.6-2.5-4.3 0-8.5 0.8-12.6 2.5l-53.2 22.3c-8 3.4-17.1 3.4-25.1 0l-39.4-16.5-13.8-5.8c-1.2-0.5-2.4-1-3.7-1.3l8.8-11.2-61 18.5c-5.7-4.2-8.2-12.7-2.9-19.5l83.4-106 14.7-18.7 20.1-25.6 74-94.1c2.7-3.4 6.7-5.2 10.6-5.2 3.9 0 7.9 1.7 10.6 5.2l73.9 94.1 37.2 47.4 29 36.8 52 66.1c1.3 1.7 2.2 3.5 2.6 5.2 0 0.2 0.1 0.3 0.1 0.5 0.1 0.4 0.1 0.7 0.2 1.1 0 0.2 0.1 0.4 0.1 0.7v0.1c0.1 0.2 0.1 0.5 0.1 0.8z" fill="#00D16C" p-id="9829"></path><path d="M652.3 334.9l-13.3-5.6c-6-2.5-12.8-2.5-18.9 0l-23.6 9.9-16.3 6.8c-6 2.5-12.8 2.5-18.9 0l-35.8-14.9-4.1-1.7c-3-1.3-6.2-1.9-9.4-1.9s-6.4 0.6-9.4 1.9l-4.1 1.7-35.8 15c-6 2.5-12.8 2.5-18.9 0l-16.4-6.9-23.5-9.8c-6-2.5-12.8-2.5-18.9 0l-13.3 5.6c-9.7 4-18.4-7.4-11.9-15.7l38.7-49.2 21.6-27.5L504 135.8c2-2.6 5-3.9 8-3.9s5.9 1.3 8 3.9l48.2 61.4 13.3 16.9 82.7 105.2c6.5 8.2-2.2 19.7-11.9 15.6z" fill="#90EB7A" p-id="9830"></path><path d="M512 627.5h55.8v232.1H512z" fill="#8E4A1F" p-id="9831"></path><path d="M775.8 707.2l-24.9-10.5c-11.3-4.7-24.1-4.7-35.5 0l-75.1 31.4c-11.3 4.8-24.1 4.8-35.5 0l-37-15.5h-0.1l-38-15.9c-5.7-2.4-11.7-3.6-17.7-3.6V325.5c0.6 0 1.2 0 1.9 0.1h0.5c0.1 0 0.3 0 0.5 0.1 0.2 0 0.4 0.1 0.7 0.1s0.6 0.1 0.9 0.2c0.3 0.1 0.6 0.1 0.9 0.2 0.2 0.1 0.5 0.1 0.8 0.2 0.2 0.1 0.4 0.1 0.6 0.2l1.5 0.6c0.3 0.1 0.6 0.3 0.8 0.4 0.1 0.1 0.3 0.2 0.4 0.2 0.1 0.1 0.3 0.2 0.4 0.2 0.3 0.2 0.5 0.3 0.8 0.5s0.5 0.4 0.8 0.5c0.3 0.2 0.5 0.4 0.8 0.6 0.4 0.3 0.7 0.6 1.1 1l0.4 0.4c0.5 0.5 1 1.1 1.4 1.7l37 47 17.1 21.7 16.3 20.8 13.3 16.9 49.1 62.5 58.1 73.9 17.7 22.5 4.8 6.1 15.1 19.2 42.8 54.4c11.9 15.6-4.5 37.1-22.7 29.5z" fill="#008486" p-id="9832"></path><path d="M698.9 510.4l-17.7-7.4c-8-3.4-17.1-3.4-25.1 0l-53.2 22.3c-8 3.4-17.1 3.4-25.1 0L524.6 503c-4-1.7-8.3-2.5-12.6-2.5V240c4 0 7.9 1.7 10.6 5.2l192.1 244.4c8.7 10.9-2.9 26.1-15.8 20.8z" fill="#00AD95" p-id="9833"></path><path d="M652.3 334.9l-13.3-5.6c-6-2.5-12.8-2.5-18.9 0l-23.6 9.9-16.3 6.8c-6 2.5-12.8 2.5-18.9 0l-35.8-14.9-4.1-1.7c-3-1.3-6.2-1.9-9.4-1.9V131.9c3 0 5.9 1.3 8 3.9l48.2 61.4 13.3 16.9 82.7 105.2c6.5 8.2-2.2 19.7-11.9 15.6z" fill="#00D16C" p-id="9834"></path><path d="M932 875.8c0 8.3-3.4 15.9-8.9 21.4s-13 8.9-21.4 8.9H122.2c-16.7 0-30.2-13.5-30.2-30.2 0-8.3 3.4-15.9 8.9-21.4s13-8.9 21.4-8.9h779.5c16.7 0 30.2 13.5 30.2 30.2z" fill="#4D4F51" p-id="9835"></path><path d="M932 875.8c0 8.3-3.4 15.9-8.9 21.4s-13 8.9-21.4 8.9H510.6v-60.5h391.2c16.7 0 30.2 13.5 30.2 30.2z" fill="#3A3D3F" p-id="9836"></path><path d="M337.9 793.3h82.3v52.3h-82.3z" fill="#D350BA" p-id="9837"></path><path d="M420.3 806.3v7.8c-1.2 1.6-3 2.6-5.1 2.6-3.6 0-6.5-2.9-6.5-6.5s2.9-6.5 6.5-6.5c2 0.1 3.9 1.1 5.1 2.6z" fill="#FFFFFF" p-id="9838"></path><path d="M349.8 817.3m-6.5 0a6.5 6.5 0 1 0 13 0 6.5 6.5 0 1 0-13 0Z" fill="#FFFFFF" p-id="9839"></path><path d="M334.9 792h88.3v21.9h-88.3z" fill="#E588E5" p-id="9840"></path><path d="M361.8 834.6m-6.5 0a6.5 6.5 0 1 0 13 0 6.5 6.5 0 1 0-13 0Z" fill="#FFFFFF" p-id="9841"></path><path d="M393.6 824.2m-6.5 0a6.5 6.5 0 1 0 13 0 6.5 6.5 0 1 0-13 0Z" fill="#FFFFFF" p-id="9842"></path><path d="M420.3 832.2v11.9c-0.8 0.3-1.6 0.5-2.5 0.5-3.6 0-6.5-2.9-6.5-6.5s2.9-6.5 6.5-6.5c0.8 0.1 1.7 0.3 2.5 0.6z" fill="#FFFFFF" p-id="9843"></path><path d="M364.6 791.8h28.9v53.8h-28.9z" fill="#90EB7A" p-id="9844"></path><path d="M230.1 773.3h82.3v72.3h-82.3z" fill="#D81649" p-id="9845"></path><path d="M227.1 772h88.3v29.7h-88.3z" fill="#F73761" p-id="9846"></path><path d="M254.5 738.7c-9.3 0-16.8 7.5-16.8 16.8 0 8.2 5.9 15.1 13.7 16.5 1 0.2 2 0.3 3.1 0.3h16.8v-16.8c0-9.3-7.5-16.8-16.8-16.8z m-6.8 16.8c0-3.8 3-6.8 6.8-6.8s6.8 3 6.8 6.8v6.8h-6.8c-3.8 0-6.8-3.1-6.8-6.8zM288.1 738.7c-9.3 0-16.8 7.5-16.8 16.8v16.8h16.8c1.1 0 2.1-0.1 3.1-0.3 7.8-1.5 13.7-8.3 13.7-16.5 0-9.3-7.5-16.8-16.8-16.8z m0 23.6h-6.8v-6.8c0-3.8 3-6.8 6.8-6.8s6.8 3 6.8 6.8-3.1 6.8-6.8 6.8z" fill="#F9C035" p-id="9847"></path><path d="M256.8 771.8h28.9v73.8h-28.9z" fill="#F9970B" p-id="9848"></path><path d="M681 757.5h140.3v88.1H681z" fill="#00AD95" p-id="9849"></path><path d="M684.9 757.5h3.9v88.1h-3.9zM694.1 757.5h3.9v88.1h-3.9zM703.2 757.5h3.9v88.1h-3.9zM712.4 757.5h3.9v88.1h-3.9zM721.6 757.5h3.9v88.1h-3.9zM730.7 757.5h3.9v88.1h-3.9zM739.9 757.5h3.9v88.1h-3.9zM749.1 757.5h3.9v88.1h-3.9zM758.2 757.5h3.9v88.1h-3.9zM767.4 757.5h3.9v88.1h-3.9zM776.6 757.5h3.9v88.1h-3.9zM785.7 757.5h3.9v88.1h-3.9zM794.9 757.5h3.9v88.1h-3.9zM804.1 757.5h3.9v88.1h-3.9zM813.2 757.5h3.9v88.1h-3.9z" fill="#00D16C" p-id="9850"></path><path d="M677.4 755.9H825V792H677.4z" fill="#90EB7A" p-id="9851"></path><path d="M730.7 715c-11.3 0-20.5 9.2-20.5 20.5s9.2 20.5 20.5 20.5h20.5v-20.5c0-11.3-9.2-20.5-20.5-20.5z m8.3 28.8h-8.3c-4.6 0-8.3-3.7-8.3-8.3s3.7-8.3 8.3-8.3 8.3 3.7 8.3 8.3v8.3z" fill="#F9C035" p-id="9852"></path><path d="M771.6 715c-11.3 0-20.5 9.2-20.5 20.5V756h20.5c11.3 0 20.5-9.2 20.5-20.5s-9.2-20.5-20.5-20.5z m0 28.8h-8.3v-8.3c0-4.6 3.7-8.3 8.3-8.3s8.3 3.7 8.3 8.3c0 4.5-3.7 8.3-8.3 8.3z" fill="#F9C035" p-id="9853"></path><path d="M733.5 755.9h35.2v89.7h-35.2z" fill="#F9970B" p-id="9854"></path><path d="M581.5 216.1L512 237.3l-113.5 34.8 21.6-27.6 91.9-28.1 56.2-17.2zM662.7 425.4l-52 15.8-98.7 30-130.3 39.6-30.2 9.2 12.7-16.3 8.8-11.2 139-42.2 85.4-26 48-14.5-64.3-6.2-69.1-6.7-59.4-5.7-60-5.7 14.7-18.7 60 5.8 44.7 4.2 52 5 69.7 6.7h0.1zM735.5 600.1L512 570.8 330.2 547l14.4-18.3L512 550.6l205.8 27zM755.4 625.4l-187.6 10h-0.1l-55.7 2.9-55.8 3-208.9 11.1 16.5-20.9L512 618.3l228.3-12.1z" fill="#F9C035" p-id="9855"></path><path d="M581.5 216.1L512 237.3v-20.9l56.2-17.2zM662.7 425.4l-52 15.8-98.7 30v-20.9l85.4-26 48-14.5-64.3-6.2-69.1-6.7v-20.1l52 5 69.7 6.7h0.1zM735.5 600.1L512 570.8v-20.2l205.8 27zM755.4 625.4l-187.6 10h-0.1l-55.7 2.9v-20l228.3-12.1z" fill="#F9970B" p-id="9856"></path><path d="M456.2 269.3m-19.6 0a19.6 19.6 0 1 0 39.2 0 19.6 19.6 0 1 0-39.2 0Z" fill="#F7F737" p-id="9857"></path><path d="M487.5 405.5m-19.6 0a19.6 19.6 0 1 0 39.2 0 19.6 19.6 0 1 0-39.2 0Z" fill="#F7F737" p-id="9858"></path><path d="M505.799371 500.177968a19.6 19.6 0 1 0 12.394863-37.188807 19.6 19.6 0 1 0-12.394863 37.188807Z" fill="#F7F737" p-id="9859"></path><path d="M548.1 548.3m-19.6 0a19.6 19.6 0 1 0 39.2 0 19.6 19.6 0 1 0-39.2 0Z" fill="#F7F737" p-id="9860"></path><path d="M542.5 648.9m-19.6 0a19.6 19.6 0 1 0 39.2 0 19.6 19.6 0 1 0-39.2 0Z" fill="#F7F737" p-id="9861"></path><path d="M697.9 600.1m-19.6 0a19.6 19.6 0 1 0 39.2 0 19.6 19.6 0 1 0-39.2 0Z" fill="#F7F737" p-id="9862"></path><path d="M361.9 556.6m-19.6 0a19.6 19.6 0 1 0 39.2 0 19.6 19.6 0 1 0-39.2 0Z" fill="#F7F737" p-id="9863"></path><path d="M383.9 615.3m-19.6 0a19.6 19.6 0 1 0 39.2 0 19.6 19.6 0 1 0-39.2 0Z" fill="#F7F737" p-id="9864"></path><path d="M539.9 204.6m-19.6 0a19.6 19.6 0 1 0 39.2 0 19.6 19.6 0 1 0-39.2 0Z" fill="#F23636" p-id="9865"></path><path d="M430.6 356.5m-19.6 0a19.6 19.6 0 1 0 39.2 0 19.6 19.6 0 1 0-39.2 0Z" fill="#F23636" p-id="9866"></path><path d="M618.2 452.2m-19.6 0a19.6 19.6 0 1 0 39.2 0 19.6 19.6 0 1 0-39.2 0Z" fill="#F23636" p-id="9867"></path><path d="M446.4 462m-19.6 0a19.6 19.6 0 1 0 39.2 0 19.6 19.6 0 1 0-39.2 0Z" fill="#F23636" p-id="9868"></path><path d="M442.7 534.1m-19.6 0a19.6 19.6 0 1 0 39.2 0 19.6 19.6 0 1 0-39.2 0Z" fill="#F23636" p-id="9869"></path><path d="M342.4 657m-19.6 0a19.6 19.6 0 1 0 39.2 0 19.6 19.6 0 1 0-39.2 0Z" fill="#F23636" p-id="9870"></path><path d="M481.8 606.2m-19.6 0a19.6 19.6 0 1 0 39.2 0 19.6 19.6 0 1 0-39.2 0Z" fill="#F23636" p-id="9871"></path><path d="M598.6 590.3m-19.6 0a19.6 19.6 0 1 0 39.2 0 19.6 19.6 0 1 0-39.2 0Z" fill="#F23636" p-id="9872"></path><path d="M650.4 644.1m-19.6 0a19.6 19.6 0 1 0 39.2 0 19.6 19.6 0 1 0-39.2 0Z" fill="#F23636" p-id="9873"></path><path d="M573.8 376.1m-19.6 0a19.6 19.6 0 1 0 39.2 0 19.6 19.6 0 1 0-39.2 0Z" fill="#6CF5FF" p-id="9874"></path><path d="M548.1 432.7m-19.6 0a19.6 19.6 0 1 0 39.2 0 19.6 19.6 0 1 0-39.2 0Z" fill="#6CF5FF" p-id="9875"></path><path d="M403.5 508.4m-19.6 0a19.6 19.6 0 1 0 39.2 0 19.6 19.6 0 1 0-39.2 0Z" fill="#6CF5FF" p-id="9876"></path><path d="M487.5 576.2m-19.6 0a19.6 19.6 0 1 0 39.2 0 19.6 19.6 0 1 0-39.2 0Z" fill="#6CF5FF" p-id="9877"></path><path d="M283.6 624.5m-19.6 0a19.6 19.6 0 1 0 39.2 0 19.6 19.6 0 1 0-39.2 0Z" fill="#6CF5FF" p-id="9878"></path><path d="M657.2 561.9m-19.6 0a19.6 19.6 0 1 0 39.2 0 19.6 19.6 0 1 0-39.2 0Z" fill="#6CF5FF" p-id="9879"></path><path d="M581.7 606.2m-19.6 0a19.6 19.6 0 1 0 39.2 0 19.6 19.6 0 1 0-39.2 0Z" fill="#6CF5FF" p-id="9880"></path><path d="M436.6 648.9m-19.6 0a19.6 19.6 0 1 0 39.2 0 19.6 19.6 0 1 0-39.2 0Z" fill="#6CF5FF" p-id="9881"></path><path d="M542.9 140.8l7.3 42.6-38.2-20.1-38.2 20.1 7.3-42.6-30.9-30.1 42.7-6.2L512 65.8l19.1 38.7 42.7 6.2z" fill="#F7F737" p-id="9882"></path><path d="M542.9 140.8l7.3 42.6-38.2-20.1V65.8l19.1 38.7 42.7 6.2z" fill="#F9C035" p-id="9883"></path><path d="M927.9 852.1c-0.8-0.8-1.5-1.6-2.4-2.4-2.1-1.9-4.4-3.5-6.9-4.9-0.5-0.3-1-0.5-1.5-0.8-1-0.5-2.1-0.9-3.2-1.3-0.6-0.2-1.3-0.4-2.1-0.7-3.2-0.9-6.6-1.4-10-1.4h-70.5v-40.8c2.3-1.8 3.7-4.6 3.7-7.8v-36.1c0-5.5-4.5-10-10-10h-24.7c1.2-3.3 1.8-6.8 1.8-10.4 0-7.3-2.6-14-6.9-19.3 3.7-1.7 7-4.1 9.8-7.2 2-2.3 3.7-4.8 4.9-7.5l0.9-2.1c1.1-3 1.7-6 1.8-9.1v-0.1c0.1-4.3-0.7-8.6-2.6-12.7-0.9-2.1-2.1-4.1-3.5-5.9l-0.1-0.1-42.8-54.4-15.1-19.2-4.8-6.1-17.7-22.5-43.1-54.8 12.1 5.1h0.1c3 1.2 6 1.8 9.1 1.8 8.7 0 16.8-5 20.9-12.9 0.5-0.9 0.9-1.8 1.2-2.8v-0.1c2.7-7.6 1.3-15.9-3.8-22.3l-110-140 11.5-4.8c1.8-0.7 3.7-1.1 5.7-1.1 1.9 0 3.8 0.4 5.6 1.1l13.3 5.6c2.6 1.1 5.2 1.6 8 1.6 7.6 0 14.7-4.5 18.1-11.5 3.4-7 2.4-15.1-2.4-21.2l-82.7-105.2-13.5-16.8-18.4-23.5-4-23.2 27.1-26.4c2.7-2.6 3.7-6.6 2.5-10.2s-4.3-6.3-8.1-6.8l-37.5-5.4-16.8-34c-1.7-3.4-5.2-5.6-9-5.6s-7.3 2.2-9 5.6l-16.8 34-37.5 5.4c-3.8 0.5-6.9 3.2-8.1 6.8s-0.2 7.6 2.5 10.2l27.1 26.4-4 23.2-54.1 68.9-21.6 27.5-38.7 49.2c-4.8 6.2-5.7 14.3-2.3 21.2 3.4 7 10.5 11.5 18.1 11.5 2.7 0 5.3-0.5 7.8-1.6h0.1l13.2-5.6c1.8-0.7 3.7-1.1 5.7-1.1 1.9 0 3.8 0.4 5.6 1.1l5.4 2.2c-2.8 4.6-4.5 10-4.5 15.6l-1.7 2.1-14.7 18.7-83.4 106c-4 5.1-5.7 11.3-4.8 17.6 0.9 6.4 4.4 12.3 9.7 16.2 1.7 1.3 3.8 2 5.9 2 1 0 2-0.1 2.9-0.4l30.5-9.3-1.9 2.4-6.9 8.8-14.4 18.3-44.5 56.7c-5.8 1.2-11.1 4-15.3 8.4-5.4 5.6-8.4 12.9-8.4 20.6v1.1l-14.6 18.6-21.5 27.4c-7 9-8.3 20.4-3.4 30.5 4.9 10.1 15.1 16.6 26.1 16.6 3.9 0 7.7-0.8 11.5-2.4l24.9-10.5c4.5-1.8 9.1-2.8 13.9-2.8s9.5 0.9 13.9 2.8l75.1 31.4c6.9 2.9 14.2 4.4 21.6 4.4 7.5 0 14.8-1.5 21.6-4.4l23.1-9.7v113h-16v-0.1c0.1-0.5 0.1-0.9 0.1-1.4v-11.9c0-0.5 0-1-0.1-1.4V821c1.8-1.8 3-4.3 3-7.1V792c0-5.5-4.5-10-10-10h-27.7c-0.7-0.1-1.3-0.2-2-0.2h-28.9c-0.7 0-1.3 0.1-2 0.2h-27.7c-4.4 0-8.2 2.9-9.5 6.9V772c0-5.5-4.5-10-10-10h-1.3c0.5-2.1 0.8-4.3 0.8-6.5 0-14.8-12-26.8-26.8-26.8-6.4 0-12.2 2.2-16.8 5.9-4.6-3.7-10.4-5.9-16.8-5.9-14.8 0-26.8 12-26.8 26.8 0 2.2 0.3 4.4 0.8 6.5h-1.4c-5.5 0-10 4.5-10 10v29.7c0 2.8 1.2 5.3 3 7.1v31.8h-97.8c-9.4 0-18.2 3.7-24.9 10.4-6.7 6.7-10.4 15.5-10.4 24.9 0 19.4 15.8 35.2 35.2 35.2h779.5c9.4 0 18.2-3.7 24.9-10.4 6.7-6.7 10.4-15.5 10.4-24.9 0.2-8.8-3-17.2-8.9-23.7zM792.1 735.5c0 10.6-8.1 19.4-18.5 20.4H825V792h-3.7v48.6H681V792h-3.6v-36.1h51.3c-10.4-1-18.5-9.8-18.5-20.4 0-11.3 9.2-20.5 20.5-20.5 11 0 19.9 8.7 20.5 19.5 0.5-10 8.1-18.1 17.8-19.3 0.9-0.1 1.7-0.2 2.6-0.2 4.4 0 8.5 1.4 11.8 3.8 5.3 3.7 8.7 9.8 8.7 16.7z m-372.9-7.4c-5.7 2.4-11.7 3.6-17.7 3.6s-12.1-1.2-17.8-3.6l-75.1-31.4c-5.6-2.4-11.7-3.5-17.7-3.5s-12.1 1.2-17.8 3.5l-24.9 10.5c-2.6 1.1-5.2 1.6-7.6 1.6-14.7 0-25.2-17.7-14.8-31l21.5-27.4 16.4-20.9 0.7-0.9c-0.3-1.3-0.4-2.7-0.4-4.1 0-10.6 8.5-19.2 19-19.6l47.1-59.9 14.4-18.3 6.9-8.8 12.8-16.2 8.8-11.2-61 18.5c-5.7-4.2-8.2-12.7-2.9-19.5l83.4-106 14.7-18.7 4.1-5.2c-0.2-1-0.3-2.1-0.3-3.1 0-8.6 5.6-16 13.4-18.6l-20.5-8.5c-3-1.2-6.2-1.9-9.4-1.9s-6.4 0.6-9.5 1.9l-13.3 5.6c-1.4 0.6-2.7 0.8-4 0.8-7.8 0-13.5-9.4-7.9-16.5l38.7-49.2 21.6-27.5 55.7-70.9 5.3-30.9-30.9-30.1 42.7-6.2L512 65.8l19.1 38.7 42.7 6.2-30.9 30.1 5.3 30.9 20 25.5 13.3 16.9 82.7 105.2c5.6 7 0 16.5-7.8 16.5-1.3 0-2.7-0.3-4.1-0.9l-13.3-5.6c-3-1.2-6.2-1.9-9.4-1.9s-6.4 0.6-9.5 1.9l-23.6 9.9 118.2 150.4c3.3 4.2 3.7 8.9 2.1 13v0.1c-0.1 0.4-0.3 0.8-0.5 1.1-2.2 4.4-6.8 7.7-12.1 7.7-1.7 0-3.5-0.3-5.3-1.1l-17.7-7.4c-4-1.7-8.3-2.5-12.5-2.5-2.9 0-5.8 0.4-8.6 1.2l58.1 73.9 17.7 22.5 4.8 6.1 15.1 19.2 42.8 54.4c1 1.3 1.8 2.6 2.4 4 1.2 2.7 1.8 5.6 1.7 8.3-0.1 2-0.5 4-1.2 5.9-0.2 0.5-0.4 0.9-0.6 1.4-0.8 1.8-2 3.5-3.3 5-2.9 3.3-7 5.7-11.5 6.3-0.8 0.1-1.7 0.2-2.5 0.2-2.4 0-5-0.5-7.6-1.6l-5.2-2.2-19.7-8.3c-5.7-2.4-11.7-3.5-17.7-3.5s-12.1 1.2-17.8 3.5l-75.1 31.4c-5.6 2.4-11.7 3.6-17.7 3.6s-12.1-1.2-17.8-3.6l-37-15.5v128H456.2v-128l-37 15.4z m158.6-0.5l23.1 9.7c6.9 2.9 14.2 4.4 21.7 4.4s14.7-1.5 21.6-4.4l75.1-31.4c4.4-1.8 9.1-2.8 13.9-2.8 4.8 0 9.5 0.9 13.9 2.8l8.5 3.6c-1.6 1-3.1 2.1-4.4 3.3-5.4-4.9-12.6-7.9-20.5-7.9-16.8 0-30.5 13.7-30.5 30.5 0 3.6 0.6 7.1 1.8 10.4h-24.6c-5.5 0-10 4.5-10 10V792c0 3.1 1.4 5.8 3.6 7.7v40.9h-93.2v-113zM334.9 792h29.7v-0.2h28.9v0.2h29.7v21.9h-2.9v0.2l-0.1 0.1v12.9h0.1V839h-0.1v1.5h-82.3v-26.7h-3V792z m-107.8-20h24.3c-7.8-1.4-13.7-8.3-13.7-16.5 0-9.3 7.5-16.8 16.8-16.8s16.8 7.5 16.8 16.8c0-9.3 7.5-16.8 16.8-16.8s16.8 7.5 16.8 16.8c0 8.2-5.9 15-13.7 16.5h24.2v29.7h-3v38.9h-82.3v-38.9h-3V772z m95.3 36.8c1.1-1.1 2-2.5 2.5-4v9.1c0 2.8 1.1 5.3 3 7.1v19.6h-5.5v-31.8z m597.2 84.9c-4.8 4.8-11.1 7.4-17.9 7.4H122.2c-13.9 0-25.2-11.3-25.2-25.2 0-6.7 2.6-13.1 7.4-17.9 4.8-4.8 11.1-7.4 17.9-7.4h779.5c2.4 0 4.8 0.4 7.2 1 0.5 0.1 1 0.3 1.5 0.5 0.8 0.3 1.5 0.6 2.3 1 0.4 0.2 0.7 0.4 1.1 0.5 1.8 1 3.4 2.2 4.9 3.5 0.6 0.5 1.2 1.1 1.7 1.7 4.2 4.6 6.5 10.7 6.5 17 0 6.7-2.6 13.1-7.4 17.9z" fill="#005E5E" p-id="9884"></path><path d="M261.3 762.3v-6.8c0-3.8-3-6.8-6.8-6.8s-6.8 3-6.8 6.8c0 3.7 3 6.8 6.8 6.8h6.8zM294.9 755.5c0-3.8-3-6.8-6.8-6.8s-6.8 3-6.8 6.8v6.8h6.8c3.7 0 6.8-3 6.8-6.8zM730.7 727.2c-4.6 0-8.3 3.7-8.3 8.3s3.7 8.3 8.3 8.3h8.3v-8.3c0-4.6-3.7-8.3-8.3-8.3zM763.3 735.5v8.3h8.3c4.6 0 8.3-3.8 8.3-8.3 0-4.6-3.7-8.3-8.3-8.3-4.6 0-8.3 3.7-8.3 8.3z" fill="#005E5E" p-id="9885"></path></svg>